<svg xmlns="http://www.w3.org/2000/svg" width="256" height="256" viewBox="0 0 256 256" fill="none" role="img" aria-label="My Board logo">
  <defs>
    <linearGradient id="bg3" x1="0" y1="0" x2="0" y2="1">
      <stop offset="0%" stop-color="#2b3138"/>
      <stop offset="100%" stop-color="#1f252c"/>
    </linearGradient>
  </defs>

  <!-- bg -->
  <rect x="0" y="0" width="256" height="256" rx="28" fill="url(#bg3)"/>
  
  <!-- backlog -->
  <rect x="20" y="20" width="14" height="216" fill="#6d58d9"/>
  
  <!-- archived -->
  <rect x="220" y="20" width="14" height="216" fill="#4b5563"/>

  <!-- todo -->
  <rect x="42" y="20" width="52" height="26" fill="#2f6ce0"/>
  <rect x="42" y="55" width="52" height="30" fill="#dfe6ee" opacity="0.7"/>
  <rect x="42" y="92" width="52" height="30" fill="#dfe6ee" opacity="0.7"/>
  <rect x="42" y="129" width="52" height="30" fill="#dfe6ee" opacity="0.7"/>

  <!-- doing -->
  <rect x="101" y="20" width="52" height="26" fill="#1f9f93"/>
  <rect x="101" y="55" width="52" height="30" fill="#dfe6ee" opacity="0.7"/>

  <!-- done -->
  <rect x="160" y="20" width="52" height="26" fill="#2f8f4e"/>
  <rect x="160" y="55" width="52" height="30" fill="#dfe6ee" opacity="0.7"/>
  <rect x="160" y="92" width="52" height="30" fill="#dfe6ee" opacity="0.7"/>

  <!-- swimlane stroks -->
  <line x1="98" y1="20" x2="97" y2="236" stroke="#3a4552" stroke-width="2" opacity="0.5"/>
  <line x1="157" y1="20" x2="157" y2="236" stroke="#3a4552" stroke-width="2" opacity="0.5"/>

</svg>
